<svg width="18" height="18" viewBox="0 0 18 18" fill="none" xmlns="http://www.w3.org/2000/svg">
<path d="M10.6875 7.875H13.5" stroke="#7B8A92" stroke-width="1.125" stroke-linecap="round" stroke-linejoin="round"/>
<path d="M10.6875 10.125H13.5" stroke="#7B8A92" stroke-width="1.125" stroke-linecap="round" stroke-linejoin="round"/>
<path d="M6.47559 10.125C7.40757 10.125 8.16309 9.36948 8.16309 8.4375C8.16309 7.50552 7.40757 6.75 6.47559 6.75C5.54361 6.75 4.78809 7.50552 4.78809 8.4375C4.78809 9.36948 5.54361 10.125 6.47559 10.125Z" stroke="#7B8A92" stroke-width="1.125" stroke-linecap="round" stroke-linejoin="round"/>
<path d="M4.29688 11.8125C4.42172 11.3295 4.70349 10.9017 5.0979 10.5962C5.49232 10.2908 5.97704 10.125 6.4759 10.125C6.97476 10.125 7.4595 10.2907 7.85394 10.5961C8.24838 10.9015 8.53017 11.3293 8.65505 11.8123" stroke="#7B8A92" stroke-width="1.125" stroke-linecap="round" stroke-linejoin="round"/>
<path d="M15.1875 3.375H2.8125C2.50184 3.375 2.25 3.62684 2.25 3.9375V14.0625C2.25 14.3732 2.50184 14.625 2.8125 14.625H15.1875C15.4982 14.625 15.75 14.3732 15.75 14.0625V3.9375C15.75 3.62684 15.4982 3.375 15.1875 3.375Z" stroke="#7B8A92" stroke-width="1.125" stroke-linecap="round" stroke-linejoin="round"/>
</svg>
